<svg width="24" height="18" viewBox="0 0 24 18" fill="none" xmlns="http://www.w3.org/2000/svg">
  <path d="M23.0557 6.00253C23.0594 6.06856 23.0545 6.13576 23.0379 6.20251L21.5576 12.124C21.4829 12.4223 21.2156 12.6321 20.9082 12.6337L12.0259 12.6786C12.0248 12.6786 12.0237 12.6786 12.0225 12.6786H3.14019C2.83119 12.6786 2.56194 12.4681 2.4873 12.1682L1.00692 6.22431C0.989877 6.15577 0.984942 6.08668 0.989249 6.01895C0.416568 5.83852 0 5.30262 0 4.67109C0 3.89187 0.633869 3.258 1.41308 3.258C2.1923 3.258 2.82617 3.89187 2.82617 4.67109C2.82617 5.10991 2.62511 5.50252 2.31028 5.7619L4.16371 7.62932C4.63213 8.10134 5.28215 8.37193 5.94715 8.37193C6.73346 8.37193 7.48315 7.99852 7.95526 7.3729L11.0012 3.33696C10.7454 3.08126 10.5869 2.72794 10.5869 2.33838C10.5869 1.55916 11.2208 0.925293 12 0.925293C12.7792 0.925293 13.4131 1.55916 13.4131 2.33838C13.4131 2.71628 13.2631 3.05927 13.0206 3.31309C13.0214 3.31417 13.0224 3.31507 13.0232 3.31623L16.0471 7.3633C16.519 7.99493 17.2714 8.37202 18.0599 8.37202C18.731 8.37202 19.3621 8.11067 19.8366 7.63605L21.7017 5.77096C21.3803 5.51167 21.1738 5.11529 21.1738 4.67109C21.1738 3.89187 21.8077 3.258 22.5869 3.258C23.3661 3.258 24 3.89187 24 4.67109C24 5.28576 23.6048 5.80855 23.0557 6.00253ZM21.4131 14.787C21.4131 14.4154 21.1118 14.1141 20.7402 14.1141H3.33461C2.96299 14.1141 2.66171 14.4154 2.66171 14.787V16.4019C2.66171 16.7735 2.96299 17.0748 3.33461 17.0748H20.7402C21.1118 17.0748 21.4131 16.7735 21.4131 16.4019V14.787Z" fill="white" />
</svg>