<svg width="18" height="18" viewBox="0 0 18 18" fill="none" xmlns="http://www.w3.org/2000/svg">
<path d="M9 16.2C10.125 16.2 11.0813 15.8063 11.8688 15.0188C12.6563 14.2313 13.05 13.275 13.05 12.15C13.05 11.025 12.6563 10.0688 11.8688 9.28125C11.0813 8.49375 10.125 8.1 9 8.1C7.875 8.1 6.91875 8.49375 6.13125 9.28125C5.34375 10.0688 4.95 11.025 4.95 12.15C4.95 13.275 5.34375 14.2313 6.13125 15.0188C6.91875 15.8063 7.875 16.2 9 16.2ZM6.3675 6.93C6.6675 6.765 6.98625 6.63375 7.32375 6.53625C7.66125 6.43875 8.0025 6.375 8.3475 6.345L6.075 1.8H3.825L6.3675 6.93ZM11.6325 6.93L14.1975 1.8H11.925L10.0125 5.625L10.44 6.48C10.65 6.54 10.8525 6.60375 11.0475 6.67125C11.2425 6.73875 11.4375 6.825 11.6325 6.93ZM3.96 15.12C3.705 14.685 3.50625 14.2163 3.36375 13.7138C3.22125 13.2113 3.15 12.69 3.15 12.15C3.15 11.61 3.22125 11.0888 3.36375 10.5863C3.50625 10.0838 3.705 9.615 3.96 9.18C3.33 9.39 2.8125 9.76125 2.4075 10.2938C2.0025 10.8263 1.8 11.445 1.8 12.15C1.8 12.855 2.0025 13.4738 2.4075 14.0063C2.8125 14.5388 3.33 14.91 3.96 15.12ZM14.04 15.12C14.67 14.91 15.1875 14.5388 15.5925 14.0063C15.9975 13.4738 16.2 12.855 16.2 12.15C16.2 11.445 15.9975 10.8263 15.5925 10.2938C15.1875 9.76125 14.67 9.39 14.04 9.18C14.295 9.615 14.4938 10.0838 14.6363 10.5863C14.7788 11.0888 14.85 11.61 14.85 12.15C14.85 12.69 14.7788 13.2113 14.6363 13.7138C14.4938 14.2163 14.295 14.685 14.04 15.12ZM9 18C8.4 18 7.82625 17.9138 7.27875 17.7413C6.73125 17.5688 6.225 17.3325 5.76 17.0325C5.625 17.0625 5.49 17.0813 5.355 17.0888C5.22 17.0963 5.0775 17.1 4.9275 17.1C3.5625 17.1 2.4 16.62 1.44 15.66C0.48 14.7 0 13.5375 0 12.1725C0 10.8675 0.435 9.75 1.305 8.82C2.175 7.89 3.2475 7.3725 4.5225 7.2675L0.9 0H7.2L9 3.6L10.8 0H17.1L13.5 7.2225C14.775 7.3425 15.8438 7.8675 16.7063 8.7975C17.5688 9.7275 18 10.845 18 12.15C18 13.53 17.52 14.7 16.56 15.66C15.6 16.62 14.43 17.1 13.05 17.1C12.915 17.1 12.7763 17.0963 12.6338 17.0888C12.4913 17.0813 12.3525 17.0625 12.2175 17.0325C11.7525 17.3325 11.25 17.5688 10.71 17.7413C10.17 17.9138 9.6 18 9 18ZM7.335 14.625L7.965 12.5775L6.3 11.385H8.3475L9 9.225L9.6525 11.385H11.7L10.035 12.5775L10.665 14.625L9 13.365L7.335 14.625Z" fill="white"/>
</svg>
