<svg width="20" height="20" viewBox="0 0 20 20" fill="none" xmlns="http://www.w3.org/2000/svg">
<g clip-path="url(#clip0_5159_4472)">
<path d="M13.3745 10.5997C12.4745 9.19574 10.9418 8.35742 9.27427 8.35742C7.60679 8.35742 6.07405 9.19574 5.17424 10.5997L3.00566 13.9827C2.64586 14.5439 2.47984 15.1924 2.52547 15.8576C2.57109 16.5229 2.82423 17.1424 3.25743 17.6496C3.69093 18.1563 4.26375 18.5027 4.91392 18.6513C5.5641 18.7999 6.2306 18.7364 6.84126 18.468L6.88215 18.4499C8.41871 17.788 10.1745 17.7941 11.7071 18.468C12.1025 18.6418 12.5213 18.7297 12.944 18.7297C13.1738 18.7297 13.405 18.7036 13.634 18.6515C14.2842 18.503 14.857 18.1566 15.2907 17.6497C15.724 17.143 15.9773 16.5233 16.0231 15.8579C16.0689 15.1924 15.9028 14.5441 15.543 13.9826L13.3745 10.5997Z" fill="#554A9C"/>
<path d="M3.58965 10.5954C4.23479 10.3476 4.7249 9.82778 4.96965 9.13152C5.20265 8.46898 5.18358 7.721 4.91579 7.0252C4.64784 6.32985 4.16048 5.76223 3.54341 5.42669C2.89522 5.07436 2.18309 5.01699 1.53902 5.26525C0.243241 5.76345 -0.351393 7.3647 0.213639 8.8355C0.664994 10.0062 1.7177 10.7451 2.782 10.7451C3.05376 10.7451 3.32628 10.6969 3.58965 10.5954Z" fill="#554A9C"/>
<path d="M7.79733 7.94479C9.4172 7.94479 10.7351 6.44333 10.7351 4.59778C10.7351 2.75177 9.4172 1.25 7.79733 1.25C6.17761 1.25 4.85986 2.75177 4.85986 4.59778C4.85986 6.44333 6.17761 7.94479 7.79733 7.94479Z" fill="#554A9C"/>
<path d="M12.8712 8.767H12.8713C13.1205 8.8497 13.3747 8.88923 13.6278 8.88923C14.8092 8.88923 15.9604 8.02939 16.3997 6.70798C16.6527 5.94733 16.6361 5.14304 16.3529 4.44343C16.0566 3.711 15.5074 3.17939 14.8064 2.94639C14.1053 2.71338 13.3471 2.81058 12.6713 3.21982C12.0257 3.61075 11.531 4.24506 11.2783 5.00571C10.745 6.61033 11.4596 8.29764 12.8712 8.767Z" fill="#554A9C"/>
<path d="M19.0577 8.37631L19.0572 8.37586C17.9402 7.55066 16.2695 7.90833 15.3327 9.17359C14.3969 10.4395 14.5432 12.1413 15.6587 12.9671C16.0655 13.2684 16.5461 13.4125 17.0381 13.4125C17.8954 13.4125 18.7875 12.9749 19.3838 12.1701C20.3195 10.9042 20.1733 9.20242 19.0577 8.37631Z" fill="#554A9C"/>
</g>
<defs>
<clipPath id="clip0_5159_4472">
<rect width="20" height="20" fill="white"/>
</clipPath>
</defs>
</svg>
