<svg width="20" height="20" viewBox="0 0 20 20" fill="none" xmlns="http://www.w3.org/2000/svg">
<g clip-path="url(#clip0_3976_832)">
<path d="M10.4167 9.95898C10.8194 9.51454 11.1285 9.0076 11.3438 8.43815C11.559 7.86871 11.6667 7.27843 11.6667 6.66732C11.6667 6.05621 11.559 5.46593 11.3438 4.89648C11.1285 4.32704 10.8194 3.8201 10.4167 3.37565C11.25 3.48676 11.9444 3.85482 12.5 4.47982C13.0556 5.10482 13.3333 5.83398 13.3333 6.66732C13.3333 7.50065 13.0556 8.22982 12.5 8.85482C11.9444 9.47982 11.25 9.84787 10.4167 9.95898ZM15 16.6673V14.1673C15 13.6673 14.8889 13.1916 14.6667 12.7402C14.4444 12.2888 14.1528 11.8895 13.7917 11.5423C14.5 11.7923 15.1562 12.1152 15.7604 12.5111C16.3646 12.9069 16.6667 13.459 16.6667 14.1673V16.6673H15ZM16.6667 10.834V9.16732H15V7.50065H16.6667V5.83398H18.3333V7.50065H20V9.16732H18.3333V10.834H16.6667ZM6.66667 10.0007C5.75 10.0007 4.96528 9.67426 4.3125 9.02148C3.65972 8.36871 3.33333 7.58398 3.33333 6.66732C3.33333 5.75065 3.65972 4.96593 4.3125 4.31315C4.96528 3.66037 5.75 3.33398 6.66667 3.33398C7.58333 3.33398 8.36806 3.66037 9.02083 4.31315C9.67361 4.96593 10 5.75065 10 6.66732C10 7.58398 9.67361 8.36871 9.02083 9.02148C8.36806 9.67426 7.58333 10.0007 6.66667 10.0007ZM0 16.6673V14.334C0 13.8618 0.121528 13.4277 0.364583 13.0319C0.607639 12.6361 0.930556 12.334 1.33333 12.1257C2.19444 11.6951 3.06944 11.3722 3.95833 11.1569C4.84722 10.9416 5.75 10.834 6.66667 10.834C7.58333 10.834 8.48611 10.9416 9.375 11.1569C10.2639 11.3722 11.1389 11.6951 12 12.1257C12.4028 12.334 12.7257 12.6361 12.9688 13.0319C13.2118 13.4277 13.3333 13.8618 13.3333 14.334V16.6673H0ZM6.66667 8.33398C7.125 8.33398 7.51736 8.17079 7.84375 7.8444C8.17014 7.51801 8.33333 7.12565 8.33333 6.66732C8.33333 6.20898 8.17014 5.81662 7.84375 5.49023C7.51736 5.16385 7.125 5.00065 6.66667 5.00065C6.20833 5.00065 5.81597 5.16385 5.48958 5.49023C5.16319 5.81662 5 6.20898 5 6.66732C5 7.12565 5.16319 7.51801 5.48958 7.8444C5.81597 8.17079 6.20833 8.33398 6.66667 8.33398ZM1.66667 15.0007H11.6667V14.334C11.6667 14.1812 11.6285 14.0423 11.5521 13.9173C11.4757 13.7923 11.375 13.6951 11.25 13.6257C10.5 13.2507 9.74306 12.9694 8.97917 12.7819C8.21528 12.5944 7.44444 12.5007 6.66667 12.5007C5.88889 12.5007 5.11806 12.5944 4.35417 12.7819C3.59028 12.9694 2.83333 13.2507 2.08333 13.6257C1.95833 13.6951 1.85764 13.7923 1.78125 13.9173C1.70486 14.0423 1.66667 14.1812 1.66667 14.334V15.0007Z" fill="white"/>
</g>
<defs>
<clipPath id="clip0_3976_832">
<rect width="20" height="20" fill="white"/>
</clipPath>
</defs>
</svg>
