<svg width="18" height="22" viewBox="0 0 18 22" fill="none" xmlns="http://www.w3.org/2000/svg">
<path d="M9.15567 21.3513L9.14467 21.3533L9.07367 21.3883L9.05367 21.3923L9.03967 21.3883L8.96867 21.3533C8.95867 21.3493 8.94967 21.3523 8.94467 21.3583L8.94067 21.3683L8.92367 21.7963L8.92867 21.8163L8.93867 21.8293L9.04267 21.9033L9.05767 21.9073L9.06967 21.9033L9.17367 21.8293L9.18567 21.8133L9.18967 21.7963L9.17267 21.3693C9.17067 21.3593 9.16367 21.3523 9.15567 21.3513ZM9.42067 21.2383L9.40767 21.2403L9.22267 21.3333L9.21267 21.3433L9.20967 21.3543L9.22767 21.7843L9.23267 21.7963L9.24067 21.8033L9.44167 21.8963C9.45367 21.9003 9.46467 21.8963 9.47067 21.8883L9.47467 21.8743L9.44067 21.2603C9.43767 21.2483 9.43067 21.2403 9.42067 21.2383ZM8.70567 21.2403C8.70113 21.2383 8.69604 21.2377 8.69117 21.2388C8.6863 21.2399 8.68191 21.2425 8.67867 21.2463L8.67267 21.2603L8.63867 21.8743C8.63867 21.8863 8.64567 21.8943 8.65567 21.8983L8.67067 21.8963L8.87167 21.8033L8.88167 21.7953L8.88567 21.7843L8.90267 21.3543L8.89967 21.3423L8.88967 21.3323L8.70567 21.2403Z" fill="white" fill-opacity="0.6"/>
<path d="M8.56287 0.09375C9.62374 0.09375 10.6412 0.515177 11.3913 1.26532C12.1414 2.01547 12.5629 3.03288 12.5629 4.09375H14.5979C15.1161 4.09368 15.614 4.29474 15.9869 4.65456C16.3598 5.01439 16.5785 5.50489 16.5969 6.02275L17.0249 18.0228C17.0344 18.2911 16.9898 18.5587 16.8937 18.8095C16.7976 19.0602 16.6519 19.2891 16.4655 19.4824C16.279 19.6756 16.0555 19.8294 15.8084 19.9344C15.5612 20.0395 15.2954 20.0937 15.0269 20.0938H2.09887C1.83031 20.0937 1.56452 20.0395 1.31736 19.9344C1.0702 19.8294 0.846718 19.6756 0.660256 19.4824C0.473793 19.2891 0.328166 19.0602 0.232059 18.8095C0.135953 18.5587 0.0913363 18.2911 0.10087 18.0228L0.52887 6.02275C0.547266 5.50489 0.765936 5.01439 1.13882 4.65456C1.5117 4.29474 2.00969 4.09368 2.52787 4.09375H4.56287C4.56287 3.03288 4.9843 2.01547 5.73444 1.26532C6.48459 0.515177 7.502 0.09375 8.56287 0.09375ZM4.56287 6.09375H2.52787L2.09887 18.0938H15.0269L14.5979 6.09375H12.5629V7.09375C12.5626 7.34863 12.465 7.59378 12.29 7.77912C12.1151 7.96445 11.8759 8.07599 11.6215 8.09092C11.367 8.10586 11.1165 8.02308 10.921 7.85949C10.7256 7.6959 10.6 7.46385 10.5699 7.21075L10.5629 7.09375V6.09375H6.56287V7.09375C6.56259 7.34863 6.46499 7.59378 6.29002 7.77912C6.11505 7.96445 5.87592 8.07599 5.62148 8.09092C5.36703 8.10586 5.11649 8.02308 4.92104 7.85949C4.72558 7.6959 4.59997 7.46385 4.56987 7.21075L4.56287 7.09375V6.09375ZM8.56287 2.09375C8.05829 2.09359 7.5723 2.28416 7.20232 2.62725C6.83234 2.97034 6.60571 3.44059 6.56787 3.94375L6.56287 4.09375H10.5629C10.5629 3.56332 10.3522 3.05461 9.97708 2.67954C9.60201 2.30446 9.0933 2.09375 8.56287 2.09375Z" fill="white" fill-opacity="0.6"/>
</svg>
