<svg width="21" height="20" viewBox="0 0 21 20" fill="none" xmlns="http://www.w3.org/2000/svg">
  <g clip-path="url(#clip0_5150_1598)">
    <path fill-rule="evenodd" clip-rule="evenodd" d="M14.8333 5.16026C14.8333 5.53179 14.5039 5.83333 14.098 5.83333C13.6922 5.83333 13.3627 5.53179 13.3627 5.16026V3.8141C13.3627 2.4509 12.1559 1.34615 10.6667 1.34615C9.17745 1.34615 7.97059 2.4509 7.97059 3.8141V5.16026C7.97059 5.53179 7.64118 5.83333 7.23529 5.83333C6.82941 5.83333 6.5 5.53179 6.5 5.16026V3.8141C6.5 1.70782 8.36569 0 10.6667 0C12.9676 0 14.8333 1.70782 14.8333 3.8141V5.16026Z" fill="#554A9C" />
    <path fill-rule="evenodd" clip-rule="evenodd" d="M18.1768 6.18214L18.9952 17.6973C19.0371 18.2942 18.8141 18.8795 18.3794 19.3161C17.9436 19.7528 17.335 20.0003 16.6988 20.0003H4.63488C3.99864 20.0003 3.39003 19.7528 2.95428 19.3161C2.51955 18.8795 2.29656 18.2942 2.3385 17.6973L3.15681 6.18214C3.23762 5.0479 4.24209 4.16699 5.45319 4.16699H15.8805C17.0916 4.16699 18.096 5.0479 18.1768 6.18214ZM13.2097 8.41608C12.7576 9.30755 11.7889 9.92457 10.6668 9.92457C9.54473 9.92457 8.57605 9.30755 8.12394 8.41608C7.94289 8.05719 7.48464 7.90462 7.10208 8.07543C6.71952 8.24528 6.55688 8.67517 6.73793 9.03406C7.43554 10.412 8.93304 11.364 10.6668 11.364C12.4006 11.364 13.8981 10.412 14.5957 9.03406C14.7768 8.67517 14.6141 8.24528 14.2316 8.07543C13.849 7.90462 13.3908 8.05719 13.2097 8.41608Z" fill="#554A9C" />
  </g>
  <defs>
    <clipPath id="clip0_5150_1598">
      <rect width="20" height="20" fill="white" transform="translate(0.666992)" />
    </clipPath>
  </defs>
</svg>