<svg width="17" height="24" viewBox="0 0 17 24" fill="none" xmlns="http://www.w3.org/2000/svg">
<path d="M2.23444 14.0001H6.65131L5.73944 22.621C5.73541 22.647 5.73431 22.7239 5.73431 22.7499C5.73431 23.439 6.29535 24 6.98438 24C7.3764 24 7.75031 23.812 7.99841 23.4791L16.7344 11.0001C16.8953 10.7849 16.9843 10.519 16.9843 10.2501C16.9843 9.56104 16.4235 9 15.7344 9H10.3284L11.2284 1.39691C11.2313 1.36798 11.2333 1.27899 11.2333 1.25006C11.2344 0.561035 10.6734 0 9.98438 0C9.59235 0 9.21844 0.188049 8.96246 0.531006L1.23431 12C1.07336 12.215 0.984375 12.481 0.984375 12.75C0.984375 13.439 1.54541 14.0001 2.23444 14.0001Z" fill="#FFE515"/>
</svg>
