<svg width="20" height="20" viewBox="0 0 20 20" fill="none" xmlns="http://www.w3.org/2000/svg">
<path d="M0 4.16667C0 3.0616 0.438987 2.00179 1.22039 1.22039C2.00179 0.438987 3.0616 0 4.16667 0H15.8333C16.9384 0 17.9982 0.438987 18.7796 1.22039C19.561 2.00179 20 3.0616 20 4.16667V15.8333C20 16.9384 19.561 17.9982 18.7796 18.7796C17.9982 19.561 16.9384 20 15.8333 20H4.16667C3.0616 20 2.00179 19.561 1.22039 18.7796C0.438987 17.9982 0 16.9384 0 15.8333V4.16667ZM4.16667 1.66667C3.50363 1.66667 2.86774 1.93006 2.3989 2.3989C1.93006 2.86774 1.66667 3.50363 1.66667 4.16667V15.8333C1.66667 16.4964 1.93006 17.1323 2.3989 17.6011C2.86774 18.0699 3.50363 18.3333 4.16667 18.3333H15.8333C16.4964 18.3333 17.1323 18.0699 17.6011 17.6011C18.0699 17.1323 18.3333 16.4964 18.3333 15.8333V4.16667C18.3333 3.50363 18.0699 2.86774 17.6011 2.3989C17.1323 1.93006 16.4964 1.66667 15.8333 1.66667H4.16667ZM3.75 14.1667C3.75 13.9457 3.8378 13.7337 3.99408 13.5774C4.15036 13.4211 4.36232 13.3333 4.58333 13.3333H8.33333C8.55435 13.3333 8.76631 13.4211 8.92259 13.5774C9.07887 13.7337 9.16667 13.9457 9.16667 14.1667C9.16667 14.3877 9.07887 14.5996 8.92259 14.7559C8.76631 14.9122 8.55435 15 8.33333 15H4.58333C4.36232 15 4.15036 14.9122 3.99408 14.7559C3.8378 14.5996 3.75 14.3877 3.75 14.1667ZM4.58333 6.66667C4.36232 6.66667 4.15036 6.75446 3.99408 6.91074C3.8378 7.06702 3.75 7.27899 3.75 7.5C3.75 7.72101 3.8378 7.93297 3.99408 8.08926C4.15036 8.24554 4.36232 8.33333 4.58333 8.33333H8.33333C8.55435 8.33333 8.76631 8.24554 8.92259 8.08926C9.07887 7.93297 9.16667 7.72101 9.16667 7.5C9.16667 7.27899 9.07887 7.06702 8.92259 6.91074C8.76631 6.75446 8.55435 6.66667 8.33333 6.66667H4.58333ZM16.0033 11.91C16.0809 11.9874 16.1425 12.0794 16.1845 12.1806C16.2265 12.2819 16.2482 12.3904 16.2482 12.5C16.2482 12.6096 16.2265 12.7181 16.1845 12.8194C16.1425 12.9206 16.0809 13.0126 16.0033 13.09L13.5033 15.59C13.4259 15.6676 13.334 15.7292 13.2327 15.7712C13.1315 15.8132 13.0229 15.8348 12.9133 15.8348C12.8037 15.8348 12.6952 15.8132 12.5939 15.7712C12.4927 15.7292 12.4007 15.6676 12.3233 15.59L11.0767 14.3433C10.9202 14.1869 10.8323 13.9746 10.8323 13.7533C10.8323 13.532 10.9202 13.3198 11.0767 13.1633C11.2331 13.0069 11.4454 12.9189 11.6667 12.9189C11.888 12.9189 12.1002 13.0069 12.2567 13.1633L12.9133 13.8217L14.825 11.91C14.9813 11.7538 15.1932 11.666 15.4142 11.666C15.6351 11.666 15.8471 11.7538 16.0033 11.91ZM16.0033 6.42333C16.0808 6.34596 16.1423 6.25409 16.1843 6.15296C16.2262 6.05183 16.2479 5.94342 16.248 5.83392C16.248 5.72443 16.2265 5.61599 16.1847 5.5148C16.1429 5.41361 16.0815 5.32165 16.0042 5.24417C15.9268 5.16669 15.8349 5.1052 15.7338 5.06323C15.6327 5.02126 15.5243 4.99961 15.4148 4.99954C15.3053 4.99946 15.1968 5.02095 15.0956 5.06278C14.9944 5.10461 14.9025 5.16596 14.825 5.24333L12.9133 7.155L12.2567 6.49667C12.1792 6.41919 12.0872 6.35773 11.986 6.31579C11.8847 6.27386 11.7762 6.25228 11.6667 6.25228C11.5571 6.25228 11.4486 6.27386 11.3474 6.31579C11.2461 6.35773 11.1541 6.41919 11.0767 6.49667C10.9992 6.57415 10.9377 6.66613 10.8958 6.76736C10.8539 6.86859 10.8323 6.97709 10.8323 7.08667C10.8323 7.19624 10.8539 7.30474 10.8958 7.40597C10.9377 7.5072 10.9992 7.59919 11.0767 7.67667L12.3233 8.92333C12.4007 9.00094 12.4927 9.06251 12.5939 9.10452C12.6952 9.14653 12.8037 9.16816 12.9133 9.16816C13.0229 9.16816 13.1315 9.14653 13.2327 9.10452C13.334 9.06251 13.4259 9.00094 13.5033 8.92333L16.0033 6.42333Z" fill="white"/>
</svg>
