	<svg width="21" height="20" viewBox="0 0 21 20" fill="none" xmlns="http://www.w3.org/2000/svg">
								<path d="M15.0235 0H6.6435C3.0035 0 0.833496 2.17 0.833496 5.81V14.19C0.833496 17.83 3.0035 20 6.6435 20H15.0235C18.6635 20 20.8335 17.83 20.8335 14.19V5.81C20.8335 2.17 18.6635 0 15.0235 0ZM8.8035 12.9L6.5535 15.15C6.4035 15.3 6.2135 15.37 6.0235 15.37C5.8335 15.37 5.6335 15.3 5.4935 15.15L4.7435 14.4C4.4435 14.11 4.4435 13.63 4.7435 13.34C5.0335 13.05 5.5035 13.05 5.8035 13.34L6.0235 13.56L7.7435 11.84C8.0335 11.55 8.5035 11.55 8.8035 11.84C9.0935 12.13 9.0935 12.61 8.8035 12.9ZM8.8035 5.9L6.5535 8.15C6.4035 8.3 6.2135 8.37 6.0235 8.37C5.8335 8.37 5.6335 8.3 5.4935 8.15L4.7435 7.4C4.4435 7.11 4.4435 6.63 4.7435 6.34C5.0335 6.05 5.5035 6.05 5.8035 6.34L6.0235 6.56L7.7435 4.84C8.0335 4.55 8.5035 4.55 8.8035 4.84C9.0935 5.13 9.0935 5.61 8.8035 5.9ZM16.3935 14.62H11.1435C10.7335 14.62 10.3935 14.28 10.3935 13.87C10.3935 13.46 10.7335 13.12 11.1435 13.12H16.3935C16.8135 13.12 17.1435 13.46 17.1435 13.87C17.1435 14.28 16.8135 14.62 16.3935 14.62ZM16.3935 7.62H11.1435C10.7335 7.62 10.3935 7.28 10.3935 6.87C10.3935 6.46 10.7335 6.12 11.1435 6.12H16.3935C16.8135 6.12 17.1435 6.46 17.1435 6.87C17.1435 7.28 16.8135 7.62 16.3935 7.62Z" fill="white" />
							</svg>