<svg width="25" height="20" viewBox="0 0 25 20" fill="none" xmlns="http://www.w3.org/2000/svg">
<path d="M2.7 14.25C3.6384 14.25 4.4 13.1076 4.4 11.7C4.4 10.2924 3.6384 9.15 2.7 9.15C1.7616 9.15 1 10.2924 1 11.7C1 13.1076 1.7616 14.25 2.7 14.25ZM7.8 6.6C8.7384 6.6 9.5 5.4576 9.5 4.05C9.5 2.6424 8.7384 1.5 7.8 1.5C6.8616 1.5 6.1 2.6424 6.1 4.05C6.1 5.4576 6.8616 6.6 7.8 6.6ZM16.3 6.6C17.2384 6.6 18 5.4576 18 4.05C18 2.6424 17.2384 1.5 16.3 1.5C15.3616 1.5 14.6 2.6424 14.6 4.05C14.6 5.4576 15.3616 6.6 16.3 6.6ZM21.4 14.25C22.3384 14.25 23.1 13.1076 23.1 11.7C23.1 10.2924 22.3384 9.15 21.4 9.15C20.4616 9.15 19.7 10.2924 19.7 11.7C19.7 13.1076 20.4616 14.25 21.4 14.25ZM17.15 15.1C17.15 17.446 14.396 18.5 12.05 18.5C9.704 18.5 6.95 17.446 6.95 15.1C6.95 12.754 8.65 9.15 12.05 9.15C15.45 9.15 17.15 12.754 17.15 15.1Z" stroke="white" stroke-width="2" stroke-linecap="round" stroke-linejoin="round"/>
</svg>
